:FULLY-SPECIFIED
:FORCE-ALL-JOINTS-BE-3DOF
:DEGREES
501
root 10.604 16.9055 34.1124 5.76005 4.69531 5.16096
lfemur 19.6146 1.30633 -27.932
ltibia -3.60463e-14 0 0
lfoot -16.1584 4.24211 0
ltoes -4.83931 0 0
rfemur -42.5931 8.99137 10.9661
rtibia 28.2341 0 0
rfoot -24.5665 -13.2811 0
rtoes -26.2908 0 0
lowerback -7.73395 -5.32799 -6.04659
upperback 0.687666 -6.61354 1.46093
thorax 5.91831 -3.47743 4.02178
lowerneck -23.6805 -2.62089 -10.0439
upperneck 23.7672 -3.21992 11.2447
head 12.1159 -0.88546 5.43584
lclavicle 3.21367e-15 2.12039e-15 0
lhumerus -15.9447 -25.2857 88.4165
lradius 34.9767 0 0
lwrist 6.86453 0 0
lhand -16.3396 -26.8987 0
lfingers 7.12502 0 0
lthumb 9.87196 2.83649 0
rclavicle 3.21367e-15 2.12039e-15 0
rhumerus -49.1289 5.2274 -83.5213
rradius 31.9834 0 0
rwrist -16.1914 0 0
rhand -29.2349 -22.4897 0
rfingers 7.12502 0 0
rthumb -2.57857 -52.453 0
502
root 10.5791 16.8843 34.2874 5.84165 4.7795 5.04988
lfemur 20.1593 1.17129 -27.6283
ltibia -2.70347e-14 0 0
lfoot -15.909 4.24885 0
ltoes -6.0099 0 0
rfemur -42.6116 8.3319 11.655
rtibia 28.9826 0 0
rfoot -24.5665 -13.2811 0
rtoes -26.2908 0 0
lowerback -7.68974 -5.32015 -5.92056
upperback 0.577222 -6.62136 1.50695
thorax 5.76794 -3.47255 4.00916
lowerneck -23.6634 -2.64697 -10.1196
upperneck 23.6881 -3.23 11.2663
head 12.085 -0.894149 5.45173
lclavicle 1.60518e-14 -1.19268e-15 0
lhumerus -16.7614 -25.2986 88.9784
lradius 34.8191 0 0
lwrist 7.20303 0 0
lhand -15.5011 -26.8281 0
lfingers 7.12502 0 0
lthumb 10.6807 2.86533 0
rclavicle 1.60518e-14 -1.19268e-15 0
rhumerus -49.2864 4.86834 -83.2574
rradius 31.4036 0 0
rwrist -15.795 0 0
rhand -29.0064 -23.5212 0
rfingers 7.12502 0 0
rthumb -2.35787 -53.4869 0
503
root 10.5542 16.863 34.4624 5.92326 4.86368 4.9388
lfemur 20.7039 1.03625 -27.3245
ltibia -1.80231e-14 0 0
lfoot -15.6596 4.2556 0
ltoes -7.18048 0 0
rfemur -42.63 7.67243 12.3439
rtibia 29.731 0 0
rfoot -24.5665 -13.2811 0
rtoes -26.2908 0 0
lowerback -7.64553 -5.3123 -5.79452
upperback 0.466779 -6.62919 1.55297
thorax 5.61757 -3.46766 3.99654
lowerneck -23.6463 -2.67305 -10.1953
upperneck 23.609 -3.24008 11.288
head 12.0541 -0.902837 5.46762
lclavicle 2.889e-14 -4.50576e-15 0
lhumerus -17.5782 -25.3115 89.5402
lradius 34.6615 0 0
lwrist 7.54154 0 0
lhand -14.6626 -26.7575 0
lfingers 7.12502 0 0
lthumb 11.4895 2.89417 0
rclavicle 2.889e-14 -4.50576e-15 0
rhumerus -49.4439 4.50929 -82.9935
rradius 30.8239 0 0
rwrist -15.3985 0 0
rhand -28.7779 -24.5527 0
rfingers 7.12502 0 0
rthumb -2.13718 -54.5208 0
504
root 10.5294 16.8417 34.6374 6.00487 4.94786 4.82773
lfemur 21.2486 0.901215 -27.0207
ltibia -9.01157e-15 0 0
lfoot -15.4102 4.26234 0
ltoes -8.35106 0 0
rfemur -42.6484 7.01297 13.0329
rtibia 30.4795 0 0
rfoot -24.5665 -13.2811 0
rtoes -26.2908 0 0
lowerback -7.60131 -5.30445 -5.66849
upperback 0.356335 -6.63701 1.599
thorax 5.46721 -3.46278 3.98392
lowerneck -23.6291 -2.69913 -10.271
upperneck 23.5299 -3.25017 11.3096
head 12.0231 -0.911525 5.4835
lclavicle 4.17282e-14 -7.81883e-15 0
lhumerus -18.395 -25.3244 90.1021
lradius 34.5038 0 0
lwrist 7.88004 0 0
lhand -13.8242 -26.6869 0
lfingers 7.12502 0 0
lthumb 12.2982 2.923 0
rclavicle 4.17282e-14 -7.81883e-15 0
rhumerus -49.6013 4.15023 -82.7295
rradius 30.2442 0 0
rwrist -15.002 0 0
rhand -28.5494 -25.5841 0
rfingers 7.12502 0 0
rthumb -1.91649 -55.5547 0
505
root 10.5045 16.8204 34.8124 6.08648 5.03204 4.71665
lfemur 21.7933 0.766176 -26.7169
ltibia 0 0 0
lfoot -15.1608 4.26908 0
ltoes -9.52164 0 0
rfemur -42.6668 6.3535 13.7218
rtibia 31.228 0 0
rfoot -24.5665 -13.2811 0
rtoes -26.2908 0 0
lowerback -7.5571 -5.2966 -5.54246
upperback 0.245892 -6.64484 1.64502
thorax 5.31684 -3.4579 3.9713
lowerneck -23.612 -2.72521 -10.3467
upperneck 23.4508 -3.26025 11.3313
head 11.9922 -0.920213 5.49939
lclavicle 5.45664e-14 -1.11319e-14 0
lhumerus -19.2118 -25.3373 90.664
lradius 34.3462 0 0
lwrist 8.21855 0 0
lhand -12.9857 -26.6163 0
lfingers 7.12502 0 0
lthumb 13.107 2.95184 0
rclavicle 5.45664e-14 -1.11319e-14 0
rhumerus -49.7588 3.79117 -82.4656
rradius 29.6645 0 0
rwrist -14.6055 0 0
rhand -28.3209 -26.6156 0
rfingers 7.12502 0 0
rthumb -1.6958 -56.5886 0
506
root 10.4803 16.8163 34.9926 6.07786 4.91504 4.46425
lfemur 22.3938 0.844763 -26.2952
ltibia 1.7493e-14 0 0
lfoot -14.3483 4.34743 0
ltoes -11.1729 0 0
rfemur -42.6948 5.80149 14.5037
rtibia 32.1451 0 0
rfoot -24.5665 -13.2811 0
rtoes -26.2908 0 0
lowerback -7.38385 -5.22088 -5.28632
upperback 0.151688 -6.57705 1.73129
thorax 5.09464 -3.41402 3.94857
lowerneck -23.7736 -2.72936 -10.2701
upperneck 23.4352 -3.2485 11.2283
head 12.0126 -0.917111 5.44881
lclavicle 4.86029e-14 -7.02368e-15 0
lhumerus -20.0983 -24.5246 91.142
lradius 33.7517 0 0
lwrist 7.521 0 0
lhand -12.4143 -26.3632 0
lfingers 7.12502 0 0
lthumb 13.6575 3.16459 0
rclavicle 4.86029e-14 -7.02368e-15 0
rhumerus -49.8136 3.33422 -82.0111
rradius 29.0796 0 0
rwrist -13.9189 0 0
rhand -28.3981 -25.9749 0
rfingers 7.12502 0 0
rthumb -1.77035 -55.9472 0
507
root 10.4561 16.8121 35.1728 6.06923 4.79804 4.21185
lfemur 22.9944 0.923351 -25.8734
ltibia 3.4986e-14 0 0
lfoot -13.5358 4.42579 0
ltoes -12.8241 0 0
rfemur -42.7228 5.24947 15.2856
rtibia 33.0621 0 0
rfoot -24.5665 -13.2811 0
rtoes -26.2908 0 0
lowerback -7.2106 -5.14516 -5.03017
upperback 0.0574847 -6.50927 1.81756
thorax 4.87244 -3.37013 3.92585
lowerneck -23.9352 -2.73352 -10.1935
upperneck 23.4197 -3.23675 11.1253
head 12.0331 -0.914009 5.39823
lclavicle 4.26393e-14 -2.91547e-15 0
lhumerus -20.9848 -23.7118 91.62
lradius 33.1572 0 0
lwrist 6.82345 0 0
lhand -11.8429 -26.11 0
lfingers 7.12502 0 0
lthumb 14.208 3.37734 0
rclavicle 4.26393e-14 -2.91547e-15 0
rhumerus -49.8684 2.87727 -81.5566
rradius 28.4947 0 0
rwrist -13.2323 0 0
rhand -28.4753 -25.3341 0
rfingers 7.12502 0 0
rthumb -1.8449 -55.3058 0
508
root 10.4319 16.808 35.353 6.06061 4.68103 3.95945
lfemur 23.5949 1.00194 -25.4517
ltibia 5.2479e-14 0 0
lfoot -12.7233 4.50414 0
ltoes -14.4753 0 0
rfemur -42.7508 4.69746 16.0675
rtibia 33.9792 0 0
rfoot -24.5665 -13.2811 0
rtoes -26.2908 0 0
lowerback -7.03735 -5.06944 -4.77403
upperback -0.036719 -6.44148 1.90383
thorax 4.65024 -3.32625 3.90313
lowerneck -24.0968 -2.73767 -10.1168
upperneck 23.4041 -3.225 11.0223
head 12.0535 -0.910907 5.34764
lclavicle 3.66758e-14 1.19275e-15 0
lhumerus -21.8713 -22.899 92.098
lradius 32.5628 0 0
lwrist 6.12591 0 0
lhand -11.2715 -25.8569 0
lfingers 7.12502 0 0
lthumb 14.7585 3.59009 0
rclavicle 3.66758e-14 1.19275e-15 0
rhumerus -49.9232 2.42032 -81.1021
rradius 27.9098 0 0
rwrist -12.5457 0 0
rhand -28.5525 -24.6934 0
rfingers 7.12502 0 0
rthumb -1.91946 -54.6643 0
509
root 10.4077 16.8039 35.5333 6.05199 4.56403 3.70705
lfemur 24.1954 1.08053 -25.03
ltibia 6.9972e-14 0 0
lfoot -11.9109 4.58249 0
ltoes -16.1265 0 0
rfemur -42.7789 4.14545 16.8494
rtibia 34.8962 0 0
rfoot -24.5665 -13.2811 0
rtoes -26.2908 0 0
lowerback -6.86411 -4.99373 -4.51789
upperback -0.130923 -6.37369 1.99011
thorax 4.42805 -3.28237 3.8804
lowerneck -24.2585 -2.74182 -10.0402
upperneck 23.3885 -3.21325 10.9193
head 12.0739 -0.907806 5.29706
lclavicle 3.07123e-14 5.30097e-15 0
lhumerus -22.7579 -22.0863 92.576
lradius 31.9683 0 0
lwrist 5.42836 0 0
lhand -10.7001 -25.6038 0
lfingers 7.12502 0 0
lthumb 15.309 3.80284 0
rclavicle 3.07123e-14 5.30097e-15 0
rhumerus -49.978 1.96337 -80.6476
rradius 27.325 0 0
rwrist -11.8592 0 0
rhand -28.6296 -24.0526 0
rfingers 7.12502 0 0
rthumb -1.99401 -54.0229 0
510
root 10.3835 16.7997 35.7135 6.04336 4.44703 3.45465
lfemur 24.796 1.15911 -24.6082
ltibia 8.7465e-14 0 0
lfoot -11.0984 4.66085 0
ltoes -17.7778 0 0
rfemur -42.8069 3.59343 17.6313
rtibia 35.8133 0 0
rfoot -24.5665 -13.2811 0
rtoes -26.2908 0 0
lowerback -6.69086 -4.91801 -4.26174
upperback -0.225126 -6.30591 2.07638
thorax 4.20585 -3.23848 3.85768
lowerneck -24.4201 -2.74598 -9.96359
upperneck 23.373 -3.2015 10.8163
head 12.0944 -0.904704 5.24648
lclavicle 2.47487e-14 9.40918e-15 0
lhumerus -23.6444 -21.2736 93.054
lradius 31.3738 0 0
lwrist 4.73081 0 0
lhand -10.1286 -25.3506 0
lfingers 7.12502 0 0
lthumb 15.8595 4.01559 0
rclavicle 2.47487e-14 9.40918e-15 0
rhumerus -50.0328 1.50642 -80.1931
rradius 26.7401 0 0
rwrist -11.1726 0 0
rhand -28.7068 -23.4119 0
rfingers 7.12502 0 0
rthumb -2.06856 -53.3815 0
511
root 10.3593 16.7956 35.8937 6.03474 4.33003 3.20225
lfemur 25.3965 1.2377 -24.1865
ltibia 1.04958e-13 0 0
lfoot -10.2859 4.7392 0
ltoes -19.429 0 0
rfemur -42.8349 3.04142 18.4132
rtibia 36.7303 0 0
rfoot -24.5665 -13.2811 0
rtoes -26.2908 0 0
lowerback -6.51761 -4.84229 -4.0056
upperback -0.31933 -6.23812 2.16265
thorax 3.98365 -3.1946 3.83495
lowerneck -24.5817 -2.75013 -9.88697
upperneck 23.3574 -3.18975 10.7133
head 12.1148 -0.901602 5.1959
lclavicle 1.87852e-14 1.35174e-14 0
lhumerus -24.5309 -20.4608 93.532
lradius 30.7793 0 0
lwrist 4.03326 0 0
lhand -9.55723 -25.0975 0
lfingers 7.12502 0 0
lthumb 16.41 4.22834 0
rclavicle 1.87852e-14 1.35174e-14 0
rhumerus -50.0876 1.04947 -79.7386
rradius 26.1552 0 0
rwrist -10.486 0 0
rhand -28.784 -22.7711 0
rfingers 7.12502 0 0
rthumb -2.14311 -52.7401 0
512
root 10.3248 16.8066 36.0615 6.13072 4.2971 3.05626
lfemur 24.9427 1.23546 -23.7764
ltibia 1.34336 0 0
lfoot -8.73139 5.35031 0
ltoes -18.7921 0 0
rfemur -42.5846 2.92099 18.9135
rtibia 37.3072 0 0
rfoot -24.5665 -13.2811 0
rtoes -26.2908 0 0
lowerback -6.42281 -4.71282 -3.92766
upperback -0.383603 -6.0754 2.20945
thorax 3.84451 -3.10945 3.86863
lowerneck -24.8824 -2.94474 -10.1223
upperneck 23.3651 -3.4123 10.9469
head 12.2191 -0.98419 5.2954
lclavicle 1.18112e-14 1.3915e-14 0
lhumerus -25.1794 -19.8507 93.837
lradius 29.7667 0 0
lwrist 3.91196 0 0
lhand -10.1431 -25.1922 0
lfingers 7.12502 0 0
lthumb 15.8456 4.1749 0
rclavicle 1.18112e-14 1.3915e-14 0
rhumerus -49.8101 0.251788 -79.1187
rradius 25.6861 0 0
rwrist -9.48147 0 0
rhand -28.5148 -23.0307 0
rfingers 7.12502 0 0
rthumb -1.8831 -53.0014 0
513
root 10.2904 16.8176 36.2294 6.2267 4.26417 2.91026
lfemur 24.4889 1.23322 -23.3663
ltibia 2.68672 0 0
lfoot -7.17688 5.96142 0
ltoes -18.1552 0 0
rfemur -42.3342 2.80056 19.4138
rtibia 37.884 0 0
rfoot -24.5665 -13.2811 0
rtoes -26.2908 0 0
lowerback -6.32801 -4.58335 -3.84971
upperback -0.447876 -5.91268 2.25625
thorax 3.70538 -3.02431 3.90231
lowerneck -25.1831 -3.13936 -10.3577
upperneck 23.3729 -3.63486 11.1805
head 12.3234 -1.06678 5.3949
lclavicle 4.83713e-15 1.43125e-14 0
lhumerus -25.828 -19.2407 94.1419
lradius 28.7541 0 0
lwrist 3.79067 0 0
lhand -10.7289 -25.2869 0
lfingers 7.12502 0 0
lthumb 15.2812 4.12146 0
rclavicle 4.83713e-15 1.43125e-14 0
rhumerus -49.5325 -0.545893 -78.4988
rradius 25.217 0 0
rwrist -8.47693 0 0
rhand -28.2456 -23.2903 0
rfingers 7.12502 0 0
rthumb -1.62308 -53.2626 0
514
root 10.2559 16.8286 36.3972 6.32268 4.23124 2.76427
lfemur 24.0352 1.23097 -22.9562
ltibia 4.03008 0 0
lfoot -5.62237 6.57252 0
ltoes -17.5183 0 0
rfemur -42.0839 2.68013 19.914
rtibia 38.4609 0 0
rfoot -24.5665 -13.2811 0
rtoes -26.2908 0 0
lowerback -6.23322 -4.45388 -3.77177
upperback -0.51215 -5.74996 2.30306
thorax 3.56624 -2.93916 3.93599
lowerneck -25.4838 -3.33397 -10.593
upperneck 23.3806 -3.85742 11.4141
head 12.4276 -1.14937 5.4944
lclavicle -2.1369e-15 1.47101e-14 0
lhumerus -26.4765 -18.6306 94.4468
lradius 27.7415 0 0
lwrist 3.66937 0 0
lhand -11.3147 -25.3816 0
lfingers 7.12502 0 0
lthumb 14.7168 4.06802 0
rclavicle -2.1369e-15 1.47101e-14 0
rhumerus -49.255 -1.34357 -77.8788
rradius 24.7478 0 0
rwrist -7.4724 0 0
rhand -27.9764 -23.5499 0
rfingers 7.12502 0 0
rthumb -1.36307 -53.5239 0
